<svg width="159" height="54" viewBox="0 0 159 54" fill="none" xmlns="http://www.w3.org/2000/svg">
    <path d="M12.145 43.449C10.129 43.449 8.377 43.161 6.889 42.585C5.425 42.009 4.309 41.241 3.541 40.281C2.773 39.321 2.389 38.289 2.389 37.185C2.389 36.273 2.629 35.577 3.109 35.097C3.589 34.593 4.321 34.341 5.305 34.341C5.305 36.381 5.917 37.941 7.141 39.021C8.365 40.077 10.081 40.605 12.289 40.605C14.401 40.605 16.021 40.257 17.149 39.561C18.277 38.841 18.841 37.785 18.841 36.393C18.841 35.553 18.625 34.869 18.193 34.341C17.785 33.789 17.077 33.321 16.069 32.937C15.085 32.529 13.657 32.121 11.785 31.713C9.577 31.233 7.825 30.681 6.529 30.057C5.233 29.409 4.285 28.629 3.685 27.717C3.085 26.805 2.785 25.677 2.785 24.333C2.785 22.989 3.157 21.813 3.901 20.805C4.669 19.773 5.749 18.981 7.141 18.429C8.533 17.877 10.153 17.601 12.001 17.601C13.753 17.601 15.313 17.853 16.681 18.357C18.073 18.837 19.153 19.533 19.921 20.445C20.713 21.333 21.109 22.341 21.109 23.469C21.109 24.165 20.881 24.717 20.425 25.125C19.993 25.509 19.309 25.701 18.373 25.701C18.109 23.877 17.461 22.545 16.429 21.705C15.421 20.865 13.945 20.445 12.001 20.445C10.129 20.445 8.689 20.781 7.681 21.453C6.673 22.101 6.169 23.025 6.169 24.225C6.169 25.065 6.349 25.761 6.709 26.313C7.093 26.841 7.729 27.297 8.617 27.681C9.529 28.065 10.801 28.437 12.433 28.797C14.881 29.325 16.801 29.913 18.193 30.561C19.609 31.209 20.629 32.001 21.253 32.937C21.877 33.873 22.189 35.025 22.189 36.393C22.189 38.577 21.277 40.305 19.453 41.577C17.629 42.825 15.193 43.449 12.145 43.449ZM26.313 19.509C26.313 19.053 26.481 18.681 26.817 18.393C27.153 18.081 27.561 17.925 28.041 17.925H43.989C43.989 18.933 43.785 19.677 43.377 20.157C42.969 20.637 42.333 20.877 41.469 20.877H29.697V28.941H39.777C39.777 29.949 39.573 30.693 39.165 31.173C38.757 31.653 38.133 31.893 37.293 31.893H29.697V40.173H42.225C43.065 40.173 43.689 40.413 44.097 40.893C44.505 41.373 44.709 42.117 44.709 43.125H28.041C27.561 43.125 27.153 42.981 26.817 42.693C26.481 42.381 26.313 41.997 26.313 41.541V19.509ZM56.6989 43.449C54.7069 43.449 52.9189 43.065 51.3349 42.297C49.7749 41.505 48.5509 40.425 47.6629 39.057C46.7749 37.665 46.3309 36.129 46.3309 34.449V26.529C46.3309 24.849 46.7749 23.337 47.6629 21.993C48.5509 20.625 49.7749 19.557 51.3349 18.789C52.9189 17.997 54.7069 17.601 56.6989 17.601C58.7149 17.601 60.5029 17.997 62.0629 18.789C63.6469 19.557 64.8829 20.625 65.7709 21.993C66.6589 23.337 67.1029 24.849 67.1029 26.529V34.449C67.1029 36.129 66.6589 37.665 65.7709 39.057C64.8829 40.425 63.6469 41.505 62.0629 42.297C60.4789 43.065 58.6909 43.449 56.6989 43.449ZM56.6989 40.497C58.9309 40.497 60.6709 39.945 61.9189 38.841C63.1669 37.737 63.7909 36.261 63.7909 34.413V26.601C63.7909 24.753 63.1669 23.289 61.9189 22.209C60.6709 21.105 58.9309 20.553 56.6989 20.553C54.4909 20.553 52.7629 21.105 51.5149 22.209C50.2669 23.289 49.6429 24.753 49.6429 26.601V34.413C49.6429 36.261 50.2669 37.737 51.5149 38.841C52.7629 39.945 54.4909 40.497 56.6989 40.497ZM80.5239 20.409C80.5239 19.521 80.8239 18.837 81.4239 18.357C82.0239 17.853 82.8519 17.601 83.9079 17.601L92.6199 38.517L91.9359 40.209L92.1879 40.317L101.404 17.601C102.46 17.601 103.288 17.853 103.888 18.357C104.512 18.861 104.824 19.557 104.824 20.445V43.449C102.592 43.449 101.476 42.525 101.476 40.677V25.521L102.412 23.037L102.124 22.965L94.0959 42.477C93.9759 42.765 93.7839 42.993 93.5199 43.161C93.2559 43.353 92.9799 43.449 92.6919 43.449C92.3799 43.449 92.0919 43.365 91.8279 43.197C91.5639 43.029 91.3719 42.789 91.2519 42.477L83.2239 22.929L82.9359 23.037L83.8719 25.485V40.677C83.8719 41.589 83.5839 42.285 83.0079 42.765C82.4559 43.221 81.6279 43.449 80.5239 43.449V20.409ZM117.115 43.449C115.651 43.449 114.343 43.173 113.191 42.621C112.039 42.045 111.139 41.265 110.491 40.281C109.843 39.273 109.519 38.145 109.519 36.897V31.569C109.519 30.297 109.855 29.145 110.527 28.113C111.223 27.081 112.147 26.277 113.299 25.701C114.475 25.101 115.747 24.801 117.115 24.801C118.483 24.801 119.731 25.089 120.859 25.665C122.011 26.241 122.911 27.033 123.559 28.041C124.231 29.049 124.567 30.189 124.567 31.461V33.765C124.567 34.149 124.423 34.473 124.135 34.737C123.847 35.001 123.499 35.133 123.091 35.133H112.579V36.753C112.579 37.977 112.963 38.961 113.731 39.705C114.523 40.449 115.651 40.821 117.115 40.821C118.579 40.821 119.695 40.497 120.463 39.849C121.231 39.201 121.615 38.325 121.615 37.221C122.335 37.173 122.935 37.317 123.415 37.653C123.919 37.965 124.171 38.433 124.171 39.057C124.171 39.825 123.835 40.545 123.163 41.217C122.515 41.889 121.651 42.429 120.571 42.837C119.491 43.245 118.339 43.449 117.115 43.449ZM121.651 32.685V31.461C121.651 30.261 121.231 29.289 120.391 28.545C119.575 27.777 118.483 27.393 117.115 27.393C115.747 27.393 114.643 27.777 113.803 28.545C112.987 29.289 112.579 30.261 112.579 31.461V32.685H121.651ZM134.973 43.449C133.269 43.449 131.997 42.969 131.157 42.009C130.317 41.025 129.897 39.741 129.897 38.157V27.645H126.549C126.549 26.829 126.729 26.205 127.089 25.773C127.449 25.341 127.941 25.125 128.565 25.125H129.933V21.705C129.933 20.913 130.185 20.337 130.689 19.977C131.217 19.593 131.997 19.401 133.029 19.401V25.125H137.817C137.817 26.805 137.061 27.645 135.549 27.645H133.065V38.049C133.065 39.009 133.233 39.693 133.569 40.101C133.929 40.485 134.565 40.677 135.477 40.677C136.317 40.677 137.109 40.461 137.853 40.029C138.165 40.341 138.321 40.761 138.321 41.289C138.321 41.865 138.021 42.369 137.421 42.801C136.821 43.233 136.005 43.449 134.973 43.449ZM147.566 43.449C145.502 43.449 143.834 42.897 142.562 41.793C141.314 40.689 140.69 39.237 140.69 37.437C140.69 35.613 141.35 34.149 142.67 33.045C143.99 31.917 145.73 31.353 147.89 31.353C150.194 31.353 152.09 32.169 153.578 33.801L153.722 33.657C153.458 33.369 153.158 33.069 152.822 32.757V31.245C152.822 30.021 152.438 29.073 151.67 28.401C150.902 27.729 149.81 27.393 148.394 27.393C145.874 27.393 144.074 28.389 142.994 30.381C142.61 30.189 142.286 29.937 142.022 29.625C141.782 29.289 141.662 28.953 141.662 28.617C141.662 27.969 141.986 27.357 142.634 26.781C143.282 26.181 144.134 25.701 145.19 25.341C146.27 24.981 147.398 24.801 148.574 24.801C150.854 24.801 152.642 25.365 153.938 26.493C155.258 27.621 155.918 29.181 155.918 31.173V41.037C155.918 41.877 155.678 42.489 155.198 42.873C154.718 43.257 153.962 43.449 152.93 43.449V41.757C153.434 41.229 153.71 40.917 153.758 40.821L153.614 40.677C152.054 42.525 150.038 43.449 147.566 43.449ZM148.106 40.965C149.594 40.965 150.758 40.653 151.598 40.029C152.462 39.405 152.894 38.541 152.894 37.437C152.894 36.333 152.474 35.457 151.634 34.809C150.794 34.161 149.642 33.837 148.178 33.837C146.81 33.837 145.73 34.161 144.938 34.809C144.17 35.433 143.786 36.309 143.786 37.437C143.786 38.565 144.158 39.441 144.902 40.065C145.67 40.665 146.738 40.965 148.106 40.965Z" fill="#00DC82" fill-opacity="0.8"/>
    <path d="M4.215 6.655C4.215 6.063 4.551 5.767 5.223 5.767V6.535C5.151 6.607 5.067 6.715 4.971 6.859L5.019 6.907C5.259 6.571 5.571 6.299 5.955 6.091C6.339 5.875 6.755 5.767 7.203 5.767C7.851 5.767 8.363 5.959 8.739 6.343C9.115 6.727 9.303 7.223 9.303 7.831V11.215C9.303 11.479 9.215 11.675 9.039 11.803C8.871 11.923 8.611 11.983 8.259 11.983V7.939C8.259 7.555 8.151 7.251 7.935 7.027C7.719 6.803 7.391 6.691 6.951 6.691C6.655 6.691 6.375 6.755 6.111 6.883C5.855 7.003 5.647 7.171 5.487 7.387C5.335 7.595 5.259 7.823 5.259 8.071V11.215C5.259 11.479 5.171 11.675 4.995 11.803C4.827 11.923 4.567 11.983 4.215 11.983V6.655ZM15.8275 11.095C15.8275 11.687 15.4915 11.983 14.8195 11.983V11.215C14.8915 11.143 14.9755 11.035 15.0715 10.891L15.0235 10.843C14.7835 11.187 14.4795 11.463 14.1115 11.671C13.7515 11.879 13.3555 11.983 12.9235 11.983C12.4915 11.983 12.1075 11.891 11.7715 11.707C11.4435 11.523 11.1875 11.267 11.0035 10.939C10.8275 10.611 10.7395 10.243 10.7395 9.835V6.535C10.7395 6.271 10.8275 6.079 11.0035 5.959C11.1795 5.831 11.4435 5.767 11.7955 5.767V9.787C11.7955 10.171 11.9075 10.479 12.1315 10.711C12.3635 10.943 12.7035 11.059 13.1515 11.059C13.4475 11.059 13.7195 10.999 13.9675 10.879C14.2155 10.751 14.4115 10.583 14.5555 10.375C14.7075 10.159 14.7835 9.927 14.7835 9.679V6.535C14.7835 6.271 14.8675 6.079 15.0355 5.959C15.2115 5.831 15.4755 5.767 15.8275 5.767V11.095ZM17.5354 11.983C17.4314 11.983 17.3194 11.963 17.1994 11.923C17.0794 11.891 16.9794 11.835 16.8994 11.755L19.1074 8.719L17.1514 5.947C17.2154 5.891 17.3034 5.847 17.4154 5.815C17.5354 5.783 17.6434 5.767 17.7394 5.767C18.0434 5.767 18.2674 5.875 18.4114 6.091L19.6594 7.951L19.4314 8.275L19.4914 8.323L21.0154 6.091C21.0874 5.987 21.1834 5.907 21.3034 5.851C21.4314 5.795 21.5674 5.767 21.7114 5.767C21.8074 5.767 21.9114 5.783 22.0234 5.815C22.1354 5.847 22.2234 5.891 22.2874 5.947L20.3194 8.719L22.5154 11.755C22.4434 11.835 22.3514 11.891 22.2394 11.923C22.1354 11.963 22.0354 11.983 21.9394 11.983C21.8114 11.983 21.6834 11.955 21.5554 11.899C21.4274 11.851 21.3354 11.783 21.2794 11.695L19.7074 9.403L18.1474 11.695C18.0834 11.791 17.9954 11.863 17.8834 11.911C17.7714 11.959 17.6554 11.983 17.5354 11.983ZM25.9741 11.983C25.4061 11.983 24.9821 11.823 24.7021 11.503C24.4221 11.175 24.2821 10.747 24.2821 10.219V6.715H23.1661C23.1661 6.443 23.2261 6.235 23.3461 6.091C23.4661 5.947 23.6301 5.875 23.8381 5.875H24.2941V4.735C24.2941 4.471 24.3781 4.279 24.5461 4.159C24.7221 4.031 24.9821 3.967 25.3261 3.967V5.875H26.9221C26.9221 6.435 26.6701 6.715 26.1661 6.715H25.3381V10.183C25.3381 10.503 25.3941 10.731 25.5061 10.867C25.6261 10.995 25.8381 11.059 26.1421 11.059C26.4221 11.059 26.6861 10.987 26.9341 10.843C27.0381 10.947 27.0901 11.087 27.0901 11.263C27.0901 11.455 26.9901 11.623 26.7901 11.767C26.5901 11.911 26.3181 11.983 25.9741 11.983Z" fill="#00DC82"/>
</svg>
